<svg xmlns="http://www.w3.org/2000/svg" width="24" height="24" fill="none" viewBox="0 0 24 24">
  <path stroke="#000" stroke-linecap="round" d="M7.875 5.768c3.684-.512 11.867-1.074 15.125.767M1 5.564c.04.27.599 1.425.854.775C2.158 5.564 2.447 4.76 3.75 4m4.125 8.104c3.684-.511 11.867-1.074 15.125.767m-22-.97c.04.27.599 1.424.854.775.304-.776.593-1.579 1.896-2.34m4.125 8.105c3.684-.511 11.867-1.074 15.125.767m-20.758.782c.063-.009 1.569-.198 1.506-1.523-.072-1.523-1.757-1.325-2.321-.662-.182.213-.563.754-.377 1.43.146.533.706.823 1.192.755Z"/>
</svg>
